<svg width="24.000000" height="24.000000" viewBox="0 0 24 24" fill="none" xmlns="http://www.w3.org/2000/svg" xmlns:xlink="http://www.w3.org/1999/xlink">
	<desc>
			Created with Pixso.
	</desc>
	<defs>
		<clipPath id="clip89_321">
			<rect id="Icon" rx="0.000000" width="23.000000" height="23.000000" transform="translate(0.500000 0.500000)" fill="white" fill-opacity="0"/>
		</clipPath>
	</defs>
	<rect id="Icon" rx="0.000000" width="23.000000" height="23.000000" transform="translate(0.500000 0.500000)" fill="#FFFFFF" fill-opacity="0"/>
	<g clip-path="url(#clip89_321)">
		<path id="Vector" d="M21.05 7.18C21.06 7.39 21.06 7.59 21.06 7.8C21.07 14.2 16.37 21.6 7.76 21.6C5.23 21.6 2.73 20.84 0.6 19.42C0.97 19.46 1.34 19.48 1.71 19.48C3.81 19.48 5.86 18.75 7.51 17.4C5.51 17.36 3.75 16.01 3.14 14.03C3.85 14.17 4.57 14.15 5.25 13.94C3.08 13.5 1.51 11.52 1.5 9.2C1.5 9.18 1.5 9.16 1.5 9.14C2.15 9.52 2.88 9.73 3.62 9.75C1.58 8.33 0.94 5.5 2.18 3.28C4.56 6.31 8.06 8.15 11.82 8.35C11.44 6.67 11.96 4.9 13.17 3.71C15.05 1.88 18.01 1.97 19.79 3.92C20.84 3.71 21.85 3.31 22.77 2.74C22.41 3.86 21.68 4.81 20.71 5.42C21.64 5.3 22.54 5.04 23.4 4.66C22.77 5.64 21.97 6.49 21.05 7.18Z" fill="#FFFFFF" fill-opacity="1.000000" fill-rule="nonzero"/>
	</g>
</svg>
