<svg width="125.234375" height="35.000244" viewBox="0 0 125.234 35.0002" fill="none" xmlns="http://www.w3.org/2000/svg" xmlns:xlink="http://www.w3.org/1999/xlink">
	<desc>
			Created with Pixso.
	</desc>
	<defs/>
	<path id="Vector" d="M115.24 11.45L117.38 11.45L117.38 14.75L117.25 16.21L117.38 16.21C117.61 15.82 117.94 15.51 118.37 15.27C118.81 15.02 119.29 14.89 119.83 14.89C120.87 14.89 121.63 15.2 122.13 15.81C122.63 16.43 122.88 17.26 122.88 18.32L122.88 23.2L120.73 23.2L120.73 18.59C120.73 18.03 120.6 17.61 120.34 17.32C120.08 17.03 119.71 16.88 119.24 16.88C118.94 16.88 118.68 16.95 118.45 17.08C118.22 17.2 118.02 17.37 117.86 17.59C117.71 17.8 117.59 18.06 117.5 18.36C117.42 18.64 117.38 18.95 117.38 19.28L117.38 23.2L115.24 23.2L115.24 11.45Z" fill="#FFFFFF" fill-opacity="1.000000" fill-rule="nonzero"/>
	<path id="Vector" d="M114.42 21.15C114.07 21.82 113.57 22.38 112.94 22.82C112.32 23.25 111.53 23.46 110.59 23.46C109.97 23.46 109.4 23.36 108.87 23.15C108.36 22.93 107.91 22.63 107.53 22.25C107.15 21.86 106.86 21.41 106.64 20.9C106.43 20.37 106.33 19.8 106.33 19.18C106.33 18.55 106.43 17.98 106.64 17.45C106.86 16.93 107.15 16.48 107.53 16.11C107.91 15.73 108.36 15.43 108.87 15.22C109.4 15 109.97 14.89 110.59 14.89C111.52 14.89 112.31 15.11 112.94 15.53C113.57 15.96 114.04 16.51 114.33 17.19L112.37 18.01C112.18 17.64 111.94 17.36 111.64 17.18C111.36 16.98 111 16.88 110.56 16.88C110.28 16.88 110.01 16.93 109.76 17.04C109.51 17.15 109.28 17.31 109.08 17.5C108.9 17.7 108.75 17.94 108.64 18.23C108.53 18.51 108.48 18.83 108.48 19.18C108.48 19.53 108.53 19.84 108.64 20.13C108.75 20.41 108.9 20.65 109.08 20.85C109.28 21.05 109.51 21.2 109.76 21.31C110.01 21.42 110.28 21.47 110.56 21.47C111.01 21.47 111.39 21.38 111.69 21.18C112.01 20.97 112.26 20.68 112.45 20.29L114.42 21.15Z" fill="#FFFFFF" fill-opacity="1.000000" fill-rule="nonzero"/>
	<path id="Vector" d="M105.7 21.26C105.32 21.92 104.82 22.45 104.19 22.85C103.56 23.26 102.8 23.46 101.89 23.46C101.28 23.46 100.71 23.36 100.18 23.15C99.67 22.93 99.22 22.63 98.84 22.25C98.45 21.86 98.15 21.41 97.94 20.9C97.73 20.37 97.62 19.8 97.62 19.18C97.62 18.6 97.73 18.05 97.94 17.54C98.14 17.01 98.43 16.56 98.8 16.17C99.18 15.78 99.61 15.47 100.12 15.24C100.63 15.01 101.2 14.89 101.81 14.89C102.45 14.89 103.03 15 103.53 15.22C104.03 15.43 104.45 15.73 104.79 16.11C105.13 16.48 105.39 16.92 105.56 17.44C105.74 17.95 105.83 18.51 105.83 19.11C105.83 19.19 105.83 19.25 105.83 19.31C105.82 19.37 105.81 19.43 105.81 19.49C105.8 19.54 105.79 19.6 105.79 19.67L99.74 19.67C99.78 20 99.87 20.28 100 20.52C100.15 20.75 100.31 20.95 100.51 21.11C100.72 21.27 100.94 21.38 101.18 21.46C101.42 21.52 101.67 21.56 101.92 21.56C102.41 21.56 102.82 21.45 103.14 21.23C103.46 21 103.72 20.71 103.91 20.37L105.7 21.26ZM103.74 18.14C103.73 18 103.68 17.84 103.6 17.67C103.52 17.49 103.4 17.33 103.23 17.18C103.08 17.02 102.88 16.9 102.64 16.8C102.41 16.7 102.14 16.65 101.81 16.65C101.35 16.65 100.94 16.78 100.59 17.04C100.24 17.31 100 17.67 99.85 18.14L103.74 18.14Z" fill="#FFFFFF" fill-opacity="1.000000" fill-rule="nonzero"/>
	<path id="Vector" d="M93.08 23.2L93.08 13.55L89.8 13.55L89.8 11.45L98.58 11.45L98.58 13.55L95.29 13.55L95.29 23.2L93.08 23.2Z" fill="#FFFFFF" fill-opacity="1.000000" fill-rule="nonzero"/>
	<path id="Vector" d="M89.31 21.26C88.94 21.92 88.44 22.45 87.8 22.85C87.18 23.26 86.41 23.46 85.51 23.46C84.89 23.46 84.32 23.36 83.8 23.15C83.29 22.93 82.84 22.63 82.45 22.25C82.07 21.86 81.77 21.41 81.55 20.9C81.34 20.37 81.24 19.8 81.24 19.18C81.24 18.6 81.34 18.05 81.55 17.54C81.76 17.01 82.05 16.56 82.42 16.17C82.79 15.78 83.23 15.47 83.73 15.24C84.25 15.01 84.81 14.89 85.42 14.89C86.07 14.89 86.64 15 87.15 15.22C87.65 15.43 88.07 15.73 88.41 16.11C88.75 16.48 89.01 16.92 89.18 17.44C89.36 17.95 89.44 18.51 89.44 19.11C89.44 19.19 89.44 19.25 89.44 19.31C89.43 19.37 89.43 19.43 89.43 19.49C89.42 19.54 89.41 19.6 89.41 19.67L83.36 19.67C83.4 20 83.49 20.28 83.62 20.52C83.76 20.75 83.93 20.95 84.13 21.11C84.34 21.27 84.56 21.38 84.8 21.46C85.04 21.52 85.29 21.56 85.54 21.56C86.03 21.56 86.44 21.45 86.75 21.23C87.08 21 87.34 20.71 87.52 20.37L89.31 21.26ZM87.36 18.14C87.35 18 87.3 17.84 87.21 17.67C87.14 17.49 87.02 17.33 86.85 17.18C86.7 17.02 86.5 16.9 86.26 16.8C86.03 16.7 85.75 16.65 85.42 16.65C84.96 16.65 84.56 16.78 84.21 17.04C83.86 17.31 83.61 17.67 83.47 18.14L87.36 18.14Z" fill="#FFFFFF" fill-opacity="1.000000" fill-rule="nonzero"/>
	<path id="Vector" d="M76.01 15.16L78.03 15.16L78.03 16.27L78.16 16.27C78.26 16.08 78.39 15.9 78.55 15.73C78.71 15.57 78.89 15.43 79.09 15.31C79.3 15.18 79.52 15.09 79.75 15.03C79.99 14.96 80.22 14.93 80.45 14.93C80.74 14.93 80.98 14.96 81.18 15.01C81.38 15.06 81.56 15.14 81.7 15.22L81.13 17.18C80.99 17.11 80.85 17.06 80.68 17.03C80.53 16.98 80.34 16.96 80.11 16.96C79.81 16.96 79.55 17.02 79.31 17.14C79.06 17.25 78.86 17.41 78.68 17.62C78.52 17.83 78.39 18.07 78.29 18.36C78.2 18.63 78.16 18.93 78.16 19.26L78.16 23.2L76.01 23.2L76.01 15.16Z" fill="#FFFFFF" fill-opacity="1.000000" fill-rule="nonzero"/>
	<path id="Vector" d="M72.64 22.15L72.51 22.15C72.26 22.55 71.92 22.87 71.49 23.11C71.07 23.34 70.58 23.46 70.03 23.46C69.01 23.46 68.25 23.15 67.75 22.52C67.26 21.9 67.01 21.07 67.01 20.03L67.01 15.16L69.16 15.16L69.16 19.77C69.16 20.35 69.29 20.78 69.54 21.06C69.8 21.34 70.18 21.47 70.67 21.47C70.97 21.47 71.22 21.41 71.44 21.29C71.67 21.16 71.86 20.99 72.02 20.78C72.18 20.57 72.3 20.31 72.38 20.03C72.47 19.73 72.51 19.42 72.51 19.09L72.51 15.16L74.66 15.16L74.66 23.2L72.64 23.2L72.64 22.15Z" fill="#FFFFFF" fill-opacity="1.000000" fill-rule="nonzero"/>
	<path id="Vector" d="M61.87 16.99L60.46 16.99L60.46 15.16L61.87 15.16L61.87 12.7L64.02 12.7L64.02 15.16L65.99 15.16L65.99 16.99L64.02 16.99L64.02 20.11C64.02 20.3 64.04 20.47 64.07 20.64C64.11 20.79 64.19 20.92 64.3 21.03C64.45 21.21 64.67 21.29 64.96 21.29C65.14 21.29 65.29 21.28 65.4 21.24C65.51 21.2 65.61 21.15 65.71 21.08L66.32 22.97C66.07 23.09 65.79 23.17 65.5 23.23C65.21 23.29 64.9 23.33 64.55 23.33C64.14 23.33 63.78 23.27 63.45 23.15C63.13 23.02 62.86 22.84 62.64 22.62C62.13 22.13 61.87 21.43 61.87 20.52L61.87 16.99Z" fill="#FFFFFF" fill-opacity="1.000000" fill-rule="nonzero"/>
	<path id="Vector" d="M57.54 22.15L57.41 22.15C57.16 22.55 56.82 22.87 56.39 23.11C55.96 23.34 55.48 23.46 54.93 23.46C53.91 23.46 53.15 23.15 52.65 22.52C52.16 21.9 51.91 21.07 51.91 20.03L51.91 15.16L54.06 15.16L54.06 19.77C54.06 20.35 54.19 20.78 54.44 21.06C54.7 21.34 55.08 21.47 55.57 21.47C55.87 21.47 56.12 21.41 56.34 21.29C56.57 21.16 56.76 20.99 56.92 20.78C57.08 20.57 57.2 20.31 57.28 20.03C57.36 19.73 57.41 19.42 57.41 19.09L57.41 15.16L59.56 15.16L59.56 23.2L57.54 23.2L57.54 22.15Z" fill="#FFFFFF" fill-opacity="1.000000" fill-rule="nonzero"/>
	<path id="Vector" d="M43.9 11.45L51.35 11.45L51.35 13.55L46.12 13.55L46.12 16.4L50.83 16.4L50.83 18.5L46.12 18.5L46.12 23.2L43.9 23.2L43.9 11.45Z" fill="#FFFFFF" fill-opacity="1.000000" fill-rule="nonzero"/>
	<path id="Vector" d="M23.33 35L23.33 29.16C26.56 29.16 29.16 26.56 29.16 23.33L34.99 23.33C34.99 29.78 29.76 35 23.33 35Z" fill="#FFD11A" fill-opacity="1.000000" fill-rule="nonzero"/>
	<path id="Vector" d="M23.33 35L23.33 29.16C20.1 29.16 17.5 26.56 17.5 23.33L11.66 23.33C11.66 29.78 16.89 35 23.33 35Z" fill="#FFD11A" fill-opacity="1.000000" fill-rule="nonzero"/>
	<path id="Vector" d="M0 23.33L5.83 23.33C5.83 26.56 8.43 29.16 11.66 29.16L11.66 35C5.23 35 0 29.78 0 23.33Z" fill="#FFD11A" fill-opacity="1.000000" fill-rule="nonzero"/>
	<path id="Vector" d="M0 23.33L5.83 23.33C5.83 20.1 8.43 17.49 11.66 17.49L11.66 11.66C5.23 11.66 0 16.89 0 23.33Z" fill="#FFD11A" fill-opacity="1.000000" fill-rule="nonzero"/>
	<path id="Vector" d="M11.66 0L11.66 5.83C8.43 5.83 5.83 8.43 5.83 11.66L0 11.66C0 5.23 5.23 0 11.66 0Z" fill="#FFD11A" fill-opacity="1.000000" fill-rule="nonzero"/>
	<path id="Vector" d="M11.66 0L11.66 5.83C14.89 5.83 17.5 8.43 17.5 11.66L23.33 11.66C23.33 5.23 18.1 0 11.66 0Z" fill="#FFD11A" fill-opacity="1.000000" fill-rule="nonzero"/>
	<path id="Vector" d="M34.99 11.66L29.16 11.66C29.16 8.43 26.56 5.83 23.33 5.83L23.33 0C29.76 0 34.99 5.23 34.99 11.66Z" fill="#FFD11A" fill-opacity="1.000000" fill-rule="nonzero"/>
	<path id="Vector" d="M35 11.66L29.16 11.66C29.16 14.89 26.56 17.49 23.33 17.49L23.33 23.33C29.76 23.33 35 18.12 35 11.66Z" fill="#FFD11A" fill-opacity="1.000000" fill-rule="nonzero"/>
</svg>
