<svg width="143.125000" height="40.000244" viewBox="0 0 143.125 40.0002" fill="none" xmlns="http://www.w3.org/2000/svg" xmlns:xlink="http://www.w3.org/1999/xlink">
	<desc>
			Created with Pixso.
	</desc>
	<defs/>
	<path id="Vector" d="M131.7 13.09L134.15 13.09L134.15 16.85L134 18.52L134.15 18.52C134.42 18.09 134.79 17.73 135.28 17.45C135.78 17.17 136.34 17.02 136.95 17.02C138.14 17.02 139.01 17.37 139.57 18.07C140.15 18.77 140.44 19.73 140.44 20.94L140.44 26.51L137.98 26.51L137.98 21.24C137.98 20.6 137.83 20.12 137.53 19.8C137.23 19.46 136.81 19.29 136.27 19.29C135.94 19.29 135.64 19.37 135.37 19.52C135.11 19.65 134.89 19.85 134.7 20.1C134.52 20.35 134.39 20.64 134.28 20.98C134.2 21.3 134.15 21.65 134.15 22.03L134.15 26.51L131.7 26.51L131.7 13.09Z" fill="#FFFFFF" fill-opacity="1.000000" fill-rule="nonzero"/>
	<path id="Vector" d="M130.76 24.17C130.36 24.94 129.8 25.58 129.07 26.08C128.36 26.57 127.47 26.81 126.39 26.81C125.68 26.81 125.02 26.69 124.42 26.45C123.84 26.2 123.32 25.86 122.89 25.42C122.46 24.99 122.12 24.47 121.87 23.89C121.64 23.29 121.52 22.63 121.52 21.92C121.52 21.2 121.64 20.55 121.87 19.95C122.12 19.35 122.46 18.84 122.89 18.41C123.32 17.97 123.84 17.64 124.42 17.4C125.02 17.15 125.68 17.02 126.39 17.02C127.46 17.02 128.35 17.27 129.07 17.75C129.8 18.24 130.33 18.87 130.67 19.65L128.42 20.59C128.21 20.16 127.93 19.84 127.59 19.63C127.27 19.4 126.86 19.29 126.36 19.29C126.03 19.29 125.72 19.35 125.44 19.48C125.15 19.6 124.89 19.78 124.67 20C124.46 20.23 124.29 20.5 124.16 20.83C124.04 21.15 123.97 21.52 123.97 21.92C123.97 22.32 124.04 22.68 124.16 23C124.29 23.33 124.46 23.6 124.67 23.83C124.89 24.05 125.15 24.23 125.44 24.35C125.72 24.48 126.03 24.54 126.36 24.54C126.87 24.54 127.3 24.43 127.65 24.2C128.01 23.97 128.3 23.63 128.51 23.19L130.76 24.17Z" fill="#FFFFFF" fill-opacity="1.000000" fill-rule="nonzero"/>
	<path id="Vector" d="M120.8 24.3C120.37 25.05 119.8 25.65 119.07 26.12C118.36 26.58 117.48 26.81 116.45 26.81C115.75 26.81 115.1 26.69 114.5 26.45C113.91 26.2 113.4 25.86 112.96 25.42C112.52 24.99 112.18 24.47 111.93 23.89C111.69 23.29 111.57 22.63 111.57 21.92C111.57 21.25 111.69 20.63 111.93 20.04C112.16 19.44 112.5 18.92 112.92 18.49C113.35 18.04 113.85 17.68 114.42 17.42C115.01 17.15 115.65 17.02 116.35 17.02C117.09 17.02 117.75 17.15 118.32 17.4C118.9 17.64 119.38 17.97 119.76 18.41C120.15 18.84 120.45 19.34 120.65 19.93C120.85 20.52 120.95 21.15 120.95 21.84C120.95 21.93 120.95 22 120.95 22.07C120.93 22.14 120.93 22.21 120.93 22.27C120.91 22.34 120.91 22.4 120.91 22.48L113.99 22.48C114.04 22.85 114.14 23.18 114.29 23.45C114.45 23.72 114.65 23.94 114.87 24.13C115.11 24.3 115.36 24.44 115.64 24.52C115.91 24.6 116.2 24.64 116.48 24.64C117.05 24.64 117.51 24.51 117.87 24.26C118.25 24 118.54 23.67 118.75 23.29L120.8 24.3ZM118.56 20.74C118.55 20.57 118.5 20.39 118.4 20.19C118.31 19.99 118.17 19.8 117.98 19.63C117.81 19.45 117.58 19.31 117.31 19.2C117.05 19.09 116.73 19.03 116.35 19.03C115.83 19.03 115.36 19.18 114.96 19.48C114.56 19.78 114.28 20.2 114.12 20.74L118.56 20.74Z" fill="#FFFFFF" fill-opacity="1.000000" fill-rule="nonzero"/>
	<path id="Vector" d="M106.38 26.51L106.38 15.49L102.63 15.49L102.63 13.09L112.66 13.09L112.66 15.49L108.91 15.49L108.91 26.51L106.38 26.51Z" fill="#FFFFFF" fill-opacity="1.000000" fill-rule="nonzero"/>
	<path id="Vector" d="M102.07 24.3C101.65 25.05 101.07 25.65 100.35 26.12C99.63 26.58 98.76 26.81 97.72 26.81C97.02 26.81 96.37 26.69 95.77 26.45C95.18 26.2 94.67 25.86 94.23 25.42C93.8 24.99 93.45 24.47 93.2 23.89C92.97 23.29 92.85 22.63 92.85 21.92C92.85 21.25 92.97 20.63 93.2 20.04C93.44 19.44 93.77 18.92 94.2 18.49C94.62 18.04 95.12 17.68 95.7 17.42C96.28 17.15 96.93 17.02 97.63 17.02C98.37 17.02 99.02 17.15 99.6 17.4C100.17 17.64 100.65 17.97 101.04 18.41C101.43 18.84 101.72 19.34 101.92 19.93C102.12 20.52 102.22 21.15 102.22 21.84C102.22 21.93 102.22 22 102.22 22.07C102.21 22.14 102.2 22.21 102.2 22.27C102.19 22.34 102.18 22.4 102.18 22.48L95.27 22.48C95.32 22.85 95.42 23.18 95.57 23.45C95.73 23.72 95.92 23.94 96.15 24.13C96.38 24.3 96.64 24.44 96.92 24.52C97.19 24.6 97.47 24.64 97.76 24.64C98.32 24.64 98.78 24.51 99.15 24.26C99.52 24 99.82 23.67 100.03 23.29L102.07 24.3ZM99.84 20.74C99.83 20.57 99.77 20.39 99.67 20.19C99.58 19.99 99.45 19.8 99.26 19.63C99.08 19.45 98.86 19.31 98.58 19.2C98.32 19.09 98 19.03 97.63 19.03C97.1 19.03 96.64 19.18 96.24 19.48C95.84 19.78 95.56 20.2 95.4 20.74L99.84 20.74Z" fill="#FFFFFF" fill-opacity="1.000000" fill-rule="nonzero"/>
	<path id="Vector" d="M86.87 17.32L89.17 17.32L89.17 18.6L89.32 18.6C89.44 18.37 89.59 18.17 89.77 17.98C89.96 17.79 90.17 17.63 90.39 17.49C90.63 17.35 90.88 17.25 91.14 17.17C91.42 17.1 91.69 17.06 91.95 17.06C92.27 17.06 92.55 17.09 92.77 17.15C93.01 17.22 93.21 17.3 93.37 17.4L92.72 19.63C92.57 19.55 92.4 19.5 92.21 19.46C92.04 19.41 91.82 19.39 91.55 19.39C91.22 19.39 90.91 19.45 90.64 19.59C90.36 19.72 90.12 19.9 89.92 20.14C89.74 20.37 89.59 20.65 89.47 20.98C89.37 21.29 89.32 21.64 89.32 22.01L89.32 26.51L86.87 26.51L86.87 17.32Z" fill="#FFFFFF" fill-opacity="1.000000" fill-rule="nonzero"/>
	<path id="Vector" d="M83.02 25.31L82.87 25.31C82.58 25.77 82.19 26.14 81.71 26.42C81.22 26.68 80.66 26.81 80.04 26.81C78.87 26.81 78.01 26.46 77.43 25.74C76.87 25.03 76.59 24.08 76.59 22.89L76.59 17.32L79.04 17.32L79.04 22.59C79.04 23.25 79.19 23.75 79.47 24.07C79.77 24.39 80.21 24.54 80.77 24.54C81.11 24.54 81.4 24.47 81.65 24.34C81.91 24.19 82.13 23.99 82.31 23.75C82.49 23.5 82.63 23.22 82.72 22.89C82.82 22.55 82.87 22.2 82.87 21.82L82.87 17.32L85.32 17.32L85.32 26.51L83.02 26.51L83.02 25.31Z" fill="#FFFFFF" fill-opacity="1.000000" fill-rule="nonzero"/>
	<path id="Vector" d="M70.71 19.42L69.1 19.42L69.1 17.32L70.71 17.32L70.71 14.51L73.17 14.51L73.17 17.32L75.42 17.32L75.42 19.42L73.17 19.42L73.17 22.99C73.17 23.2 73.19 23.4 73.22 23.59C73.27 23.76 73.36 23.91 73.49 24.04C73.66 24.24 73.91 24.34 74.24 24.34C74.45 24.34 74.62 24.32 74.74 24.28C74.87 24.23 74.99 24.17 75.1 24.09L75.79 26.25C75.51 26.39 75.19 26.49 74.86 26.55C74.53 26.62 74.17 26.66 73.77 26.66C73.31 26.66 72.89 26.59 72.51 26.46C72.15 26.3 71.84 26.1 71.59 25.85C71.01 25.29 70.71 24.49 70.71 23.46L70.71 19.42Z" fill="#FFFFFF" fill-opacity="1.000000" fill-rule="nonzero"/>
	<path id="Vector" d="M65.76 25.31L65.61 25.31C65.32 25.77 64.93 26.14 64.45 26.42C63.96 26.68 63.4 26.81 62.78 26.81C61.62 26.81 60.75 26.46 60.17 25.74C59.61 25.03 59.33 24.08 59.33 22.89L59.33 17.32L61.78 17.32L61.78 22.59C61.78 23.25 61.93 23.75 62.22 24.07C62.52 24.39 62.95 24.54 63.51 24.54C63.85 24.54 64.14 24.47 64.39 24.34C64.65 24.19 64.87 23.99 65.05 23.75C65.23 23.5 65.37 23.22 65.46 22.89C65.56 22.55 65.61 22.2 65.61 21.82L65.61 17.32L68.07 17.32L68.07 26.51L65.76 26.51L65.76 25.31Z" fill="#FFFFFF" fill-opacity="1.000000" fill-rule="nonzero"/>
	<path id="Vector" d="M50.18 13.09L58.69 13.09L58.69 15.49L52.71 15.49L52.71 18.75L58.09 18.75L58.09 21.15L52.71 21.15L52.71 26.51L50.18 26.51L50.18 13.09Z" fill="#FFFFFF" fill-opacity="1.000000" fill-rule="nonzero"/>
	<path id="Vector" d="M26.66 39.99L26.66 33.33C30.35 33.33 33.33 30.35 33.33 26.66L40 26.66C40 34.04 34.02 39.99 26.66 39.99Z" fill="#FFD11A" fill-opacity="1.000000" fill-rule="nonzero"/>
	<path id="Vector" d="M26.66 39.99L26.66 33.33C22.97 33.33 20 30.35 20 26.66L13.33 26.66C13.33 34.04 19.31 39.99 26.66 39.99Z" fill="#FFD11A" fill-opacity="1.000000" fill-rule="nonzero"/>
	<path id="Vector" d="M0 26.66L6.66 26.66C6.66 30.35 9.64 33.33 13.33 33.33L13.33 39.99C5.97 39.99 0 34.04 0 26.66Z" fill="#FFD11A" fill-opacity="1.000000" fill-rule="nonzero"/>
	<path id="Vector" d="M0 26.66L6.66 26.66C6.66 22.97 9.64 20 13.33 20L13.33 13.33C5.97 13.33 0 19.31 0 26.66Z" fill="#FFD11A" fill-opacity="1.000000" fill-rule="nonzero"/>
	<path id="Vector" d="M13.33 0L13.33 6.66C9.64 6.66 6.66 9.64 6.66 13.33L0 13.33C0 5.97 5.97 0 13.33 0Z" fill="#FFD11A" fill-opacity="1.000000" fill-rule="nonzero"/>
	<path id="Vector" d="M13.33 0L13.33 6.66C17.02 6.66 20 9.64 20 13.33L26.66 13.33C26.66 5.97 20.68 0 13.33 0Z" fill="#FFD11A" fill-opacity="1.000000" fill-rule="nonzero"/>
	<path id="Vector" d="M40 13.33L33.33 13.33C33.33 9.64 30.35 6.66 26.66 6.66L26.66 0C34.02 0 40 5.97 40 13.33Z" fill="#FFD11A" fill-opacity="1.000000" fill-rule="nonzero"/>
	<path id="Vector" d="M40 13.33L33.33 13.33C33.33 17.02 30.35 20 26.66 20L26.66 26.66C34.02 26.66 40 20.71 40 13.33Z" fill="#FFD11A" fill-opacity="1.000000" fill-rule="nonzero"/>
</svg>
